<?xml version="1.0" encoding="UTF-8" standalone="no"?>
<svg
   width="3755"
   height="227"
   xml:space="preserve"
   overflow="hidden"
   version="1.1"
   id="svg467"
   sodipodi:docname="Motto.svg"
   inkscape:version="1.2 (dc2aedaf03, 2022-05-15)"
   xmlns:inkscape="http://www.inkscape.org/namespaces/inkscape"
   xmlns:sodipodi="http://sodipodi.sourceforge.net/DTD/sodipodi-0.dtd"
   xmlns="http://www.w3.org/2000/svg"
   xmlns:svg="http://www.w3.org/2000/svg"><sodipodi:namedview
     id="namedview469"
     pagecolor="#ffffff"
     bordercolor="#666666"
     borderopacity="1.0"
     inkscape:showpageshadow="2"
     inkscape:pageopacity="0.0"
     inkscape:pagecheckerboard="0"
     inkscape:deskcolor="#d1d1d1"
     showgrid="false"
     inkscape:zoom="0.44780291"
     inkscape:cx="2067.874"
     inkscape:cy="107.19001"
     inkscape:window-width="1812"
     inkscape:window-height="1057"
     inkscape:window-x="1912"
     inkscape:window-y="-8"
     inkscape:window-maximized="1"
     inkscape:current-layer="svg467" /><defs
     id="defs433"><filter
       id="fx0"
       x="-10%"
       y="-10%"
       width="120%"
       height="120%"
       filterUnits="userSpaceOnUse"
       primitiveUnits="userSpaceOnUse"><feComponentTransfer
         color-interpolation-filters="sRGB"
         id="feComponentTransfer342"><feFuncR
           type="discrete"
           tableValues="0.772549 0.772549"
           id="feFuncR334" /><feFuncG
           type="discrete"
           tableValues="0.352941 0.352941"
           id="feFuncG336" /><feFuncB
           type="discrete"
           tableValues="0.0666667 0.0666667"
           id="feFuncB338" /><feFuncA
           type="linear"
           slope="1"
           intercept="0"
           id="feFuncA340" /></feComponentTransfer><feGaussianBlur
         stdDeviation="0.749836 0.749836"
         id="feGaussianBlur344" /></filter><filter
       id="fx1"
       x="-10%"
       y="-10%"
       width="120%"
       height="120%"
       filterUnits="userSpaceOnUse"
       primitiveUnits="userSpaceOnUse"><feComponentTransfer
         color-interpolation-filters="sRGB"
         id="feComponentTransfer355"><feFuncR
           type="discrete"
           tableValues="0.772549 0.772549"
           id="feFuncR347" /><feFuncG
           type="discrete"
           tableValues="0.352941 0.352941"
           id="feFuncG349" /><feFuncB
           type="discrete"
           tableValues="0.0666667 0.0666667"
           id="feFuncB351" /><feFuncA
           type="linear"
           slope="1"
           intercept="0"
           id="feFuncA353" /></feComponentTransfer><feGaussianBlur
         stdDeviation="0.749836 0.749836"
         id="feGaussianBlur357" /></filter><filter
       id="fx2"
       x="-10%"
       y="-10%"
       width="120%"
       height="120%"
       filterUnits="userSpaceOnUse"
       primitiveUnits="userSpaceOnUse"><feComponentTransfer
         color-interpolation-filters="sRGB"
         id="feComponentTransfer368"><feFuncR
           type="discrete"
           tableValues="0.772549 0.772549"
           id="feFuncR360" /><feFuncG
           type="discrete"
           tableValues="0.352941 0.352941"
           id="feFuncG362" /><feFuncB
           type="discrete"
           tableValues="0.0666667 0.0666667"
           id="feFuncB364" /><feFuncA
           type="linear"
           slope="1"
           intercept="0"
           id="feFuncA366" /></feComponentTransfer><feGaussianBlur
         stdDeviation="0.749836 0.749836"
         id="feGaussianBlur370" /></filter><clipPath
       id="clip3"><rect
         x="103"
         y="750"
         width="3755"
         height="227"
         id="rect373" /></clipPath><clipPath
       id="clip4"><rect
         x="0"
         y="0"
         width="61"
         height="22"
         id="rect376" /></clipPath><clipPath
       id="clip5"><rect
         x="0"
         y="0"
         width="62"
         height="22"
         id="rect379" /></clipPath><linearGradient
       x1="1980.3"
       y1="904.573"
       x2="1980.3"
       y2="770.74"
       gradientUnits="userSpaceOnUse"
       spreadMethod="reflect"
       id="fill6"><stop
         offset="0"
         stop-color="#FF0000"
         id="stop382" /><stop
         offset="0.00649"
         stop-color="#FF0000"
         id="stop384" /><stop
         offset="0.27"
         stop-color="#FF6611"
         id="stop386" /><stop
         offset="0.48"
         stop-color="#FF9900"
         id="stop388" /><stop
         offset="0.7"
         stop-color="#FFC000"
         id="stop390" /><stop
         offset="1"
         stop-color="#FFFF00"
         id="stop392" /></linearGradient><clipPath
       id="clip7"><rect
         x="1"
         y="1"
         width="2636"
         height="99"
         id="rect395" /></clipPath><clipPath
       id="clip8"><rect
         x="0"
         y="0"
         width="2638"
         height="101"
         id="rect398" /></clipPath><linearGradient
       x1="1980.3"
       y1="904.573"
       x2="1980.3"
       y2="770.74"
       gradientUnits="userSpaceOnUse"
       spreadMethod="reflect"
       id="fill9"><stop
         offset="0"
         stop-color="#FF0000"
         id="stop401" /><stop
         offset="0.00649"
         stop-color="#FF0000"
         id="stop403" /><stop
         offset="0.27"
         stop-color="#FF6611"
         id="stop405" /><stop
         offset="0.48"
         stop-color="#FF9900"
         id="stop407" /><stop
         offset="0.7"
         stop-color="#FFC000"
         id="stop409" /><stop
         offset="1"
         stop-color="#FFFF00"
         id="stop411" /></linearGradient><clipPath
       id="clip10"><rect
         x="1"
         y="0"
         width="61"
         height="22"
         id="rect414" /></clipPath><clipPath
       id="clip11"><rect
         x="0"
         y="0"
         width="62"
         height="22"
         id="rect417" /></clipPath><linearGradient
       x1="1980.3"
       y1="904.573"
       x2="1980.3"
       y2="770.74"
       gradientUnits="userSpaceOnUse"
       spreadMethod="reflect"
       id="fill12"><stop
         offset="0"
         stop-color="#FF0000"
         id="stop420" /><stop
         offset="0.00649"
         stop-color="#FF0000"
         id="stop422" /><stop
         offset="0.27"
         stop-color="#FF6611"
         id="stop424" /><stop
         offset="0.48"
         stop-color="#FF9900"
         id="stop426" /><stop
         offset="0.7"
         stop-color="#FFC000"
         id="stop428" /><stop
         offset="1"
         stop-color="#FFFF00"
         id="stop430" /></linearGradient></defs><g
     clip-path="url(#clip3)"
     transform="translate(-103 -750)"
     id="g465"><g
       clip-path="url(#clip4)"
       filter="url(#fx0)"
       transform="translate(539 827)"
       id="g439" /><path
       d="M590.785 827.882 587.249 837.458 548.208 837.458C545.904 837.458 543.106 838.072 539.813 839.301L543.447 829.831 581.441 829.831C584.903 829.831 588.017 829.181 590.785 827.882Z"
       stroke="#ED7D31"
       stroke-width="3"
       stroke-linejoin="round"
       stroke-miterlimit="10"
       fill="url(#fill6)"
       fill-rule="evenodd"
       id="path441" /><path
       d="M3278.09 862.997C3277.9 863.051 3277.44 863.432 3276.74 864.141 3276.03 864.85 3275.68 865.779 3275.68 866.928 3275.68 867.761 3276.02 868.545 3276.72 869.281 3277.41 870.017 3277.87 870.42 3278.09 870.49ZM1084.75 862.827C1083.11 863.045 1082.28 864.336 1082.28 866.698 1082.28 867.578 1082.57 868.348 1083.14 869.008 1083.71 869.667 1084.25 870.047 1084.75 870.149ZM1065.2 862.827C1063.52 863.074 1062.68 864.365 1062.68 866.698 1062.68 867.6 1062.98 868.375 1063.59 869.023 1064.2 869.671 1064.73 870.046 1065.2 870.149ZM3279.27 859.265C3281.32 859.265 3283.08 859.983 3284.55 861.419 3286.01 862.855 3286.75 864.608 3286.75 866.678 3286.75 868.764 3286.01 870.547 3284.54 872.028 3283.07 873.509 3281.32 874.25 3279.28 874.25 3277.27 874.25 3275.51 873.513 3274.01 872.041 3272.51 870.568 3271.76 868.78 3271.76 866.678 3271.76 864.57 3272.5 862.807 3273.99 861.39 3275.47 859.973 3277.24 859.265 3279.27 859.265ZM1085.83 858.942C1088.36 858.942 1090.24 859.883 1091.46 861.765 1092.68 863.646 1093.29 865.555 1093.29 867.49 1093.29 871.29 1092.1 874.537 1089.7 877.231 1087.31 879.925 1084.72 881.844 1081.95 882.985L1080.4 881.461C1083.04 878.489 1084.45 875.978 1084.65 873.928 1083.14 873.928 1081.69 873.202 1080.32 871.75 1078.94 870.298 1078.25 868.614 1078.25 866.698 1078.25 864.604 1078.94 862.788 1080.32 861.25 1081.7 859.711 1083.54 858.942 1085.83 858.942ZM1066.28 858.942C1068.81 858.942 1070.69 859.883 1071.91 861.765 1073.13 863.646 1073.74 865.555 1073.74 867.49 1073.74 871.329 1072.54 874.575 1070.14 877.226 1067.74 879.878 1065.12 881.798 1062.26 882.985L1060.9 881.392C1063.51 878.468 1064.91 875.98 1065.1 873.928 1063.61 873.928 1062.18 873.198 1060.81 871.74 1059.44 870.282 1058.76 868.601 1058.76 866.698 1058.76 864.575 1059.41 862.752 1060.73 861.228 1062.04 859.704 1063.89 858.942 1066.28 858.942ZM1729.74 839.253 1730.8 840.497C1731.24 841.071 1731.68 841.7 1732.12 842.382L1743.62 859.084C1746.3 862.899 1748.65 865.586 1750.65 867.146 1751.15 867.536 1751.65 867.878 1752.14 868.172L1753.1 868.651 1752.03 867.612C1750.28 865.797 1748.28 863.257 1746.03 859.993L1736.87 846.822C1734.95 844.011 1733.19 841.914 1731.57 840.532ZM2468.48 807.207 2467.54 808.069C2464.08 811.53 2461.39 815.455 2459.46 819.842 2457.54 824.228 2456.58 828.85 2456.58 833.707 2456.58 839.655 2458.19 845.434 2461.42 851.043 2463.03 853.848 2464.95 856.391 2467.18 858.673L2469.71 860.951 2467.76 858.995C2465.72 856.667 2464 854.114 2462.6 851.337 2459.81 845.782 2458.41 840.012 2458.41 834.027 2458.41 829.11 2459.22 824.404 2460.83 819.909 2462.45 815.414 2464.8 811.39 2467.88 807.838ZM2748.48 807.207 2747.54 808.069C2744.08 811.53 2741.39 815.455 2739.46 819.842 2737.54 824.228 2736.58 828.85 2736.58 833.707 2736.58 839.655 2738.19 845.434 2741.42 851.043 2743.03 853.848 2744.95 856.391 2747.18 858.673L2749.7 860.95 2747.76 858.995C2745.72 856.667 2744 854.114 2742.6 851.337 2739.81 845.782 2738.41 840.012 2738.41 834.027 2738.41 829.11 2739.22 824.404 2740.83 819.909 2742.45 815.414 2744.8 811.39 2747.88 807.838ZM3178.48 807.207 3177.54 808.069C3174.08 811.53 3171.39 815.455 3169.46 819.842 3167.54 824.228 3166.58 828.85 3166.58 833.707 3166.58 839.655 3168.19 845.434 3171.42 851.043 3173.03 853.848 3174.95 856.391 3177.18 858.673L3179.7 860.951 3177.76 858.995C3175.72 856.667 3174 854.114 3172.6 851.337 3169.81 845.782 3168.41 840.012 3168.41 834.027 3168.41 829.11 3169.22 824.404 3170.83 819.909 3172.45 815.414 3174.8 811.39 3177.88 807.838ZM2186.54 806.964 2185.5 809.19C2185.05 810.7 2184.83 812.298 2184.83 813.983 2184.83 818.159 2186.67 822.084 2190.34 825.758 2192.03 827.381 2193.66 828.775 2195.21 829.942 2196.76 831.108 2199.02 832.704 2202 834.73 2204.98 836.756 2207.36 838.419 2209.15 839.719 2210.93 841.018 2212.24 842.17 2213.07 843.173 2216.82 846.767 2218.69 850.652 2218.69 854.827 2218.69 857.683 2217.91 860.43 2216.36 863.067L2214.13 865.878 2214.51 865.634C2215.72 864.609 2216.74 863.465 2217.56 862.201 2219.21 859.673 2220.03 857.074 2220.03 854.405 2220.03 852.069 2219.66 849.948 2218.91 848.044 2218.16 846.139 2216.77 844.166 2214.74 842.125 2213.54 840.926 2211.36 839.242 2208.2 837.073 2205.04 834.905 2201.81 832.695 2198.51 830.444 2195.21 828.194 2192.8 826.34 2191.27 824.884 2187.37 821.02 2185.42 816.737 2185.42 812.036ZM1559.97 806.95 1559.38 810.149 1583.65 865.602 1584.25 862.029ZM720.974 806.95 720.381 810.149 744.652 865.602 745.254 862.029ZM2521.67 806.829 2523.52 809.432C2524.77 811.423 2525.86 813.668 2526.8 816.169 2528.69 821.172 2529.63 827.124 2529.63 834.027 2529.63 838.542 2529.08 842.898 2527.98 847.096 2526.87 851.293 2525.09 855.171 2522.64 858.73L2521.12 860.698 2521.5 860.339C2524.54 857.233 2526.95 853.422 2528.73 848.906 2530.51 844.39 2531.4 839.358 2531.4 833.812 2531.4 827.752 2530.48 822.405 2528.63 817.77 2527.24 814.294 2525.49 811.264 2523.37 808.68ZM2801.67 806.828 2803.52 809.432C2804.77 811.423 2805.86 813.668 2806.8 816.169 2808.69 821.172 2809.63 827.124 2809.63 834.027 2809.63 838.542 2809.08 842.898 2807.98 847.096 2806.87 851.293 2805.09 855.171 2802.64 858.73L2801.12 860.699 2801.5 860.339C2804.54 857.233 2806.95 853.422 2808.73 848.906 2810.51 844.39 2811.4 839.358 2811.4 833.812 2811.4 827.752 2810.48 822.405 2808.63 817.77 2807.24 814.294 2805.49 811.264 2803.37 808.68ZM3231.67 806.827 3233.52 809.432C3234.77 811.423 3235.86 813.668 3236.8 816.169 3238.69 821.172 3239.63 827.124 3239.63 834.027 3239.63 838.542 3239.08 842.898 3237.97 847.096 3236.87 851.293 3235.09 855.171 3232.64 858.73L3231.12 860.699 3231.5 860.339C3234.54 857.233 3236.95 853.422 3238.73 848.906 3240.51 844.39 3241.4 839.358 3241.4 833.812 3241.4 827.752 3240.48 822.405 3238.63 817.77 3237.24 814.294 3235.49 811.264 3233.37 808.68ZM1420.86 806.003C1420.4 806.201 1419.91 806.631 1419.39 807.293 1418.86 807.955 1418.6 808.746 1418.6 809.665 1418.6 810.597 1418.88 811.419 1419.44 812.131 1419.99 812.843 1420.47 813.276 1420.86 813.431ZM1401.2 806.003C1400.83 806.203 1400.36 806.644 1399.8 807.326 1399.23 808.009 1398.95 808.789 1398.95 809.665 1398.95 810.607 1399.23 811.431 1399.79 812.137 1400.36 812.843 1400.83 813.275 1401.2 813.431ZM2188.23 803.972 2187.5 804.921 2187.41 805.11ZM2267.62 803.002 2267.45 803.102C2265.35 804.463 2263.45 806.014 2261.74 807.755 2258.33 811.236 2255.73 815.262 2253.94 819.832 2252.16 824.403 2251.27 829.314 2251.27 834.565 2251.27 839.376 2252.18 843.939 2254 848.255 2255.82 852.57 2258.52 856.43 2262.09 859.834 2264.78 862.387 2267.84 864.513 2271.28 866.212L2272.12 866.575 2270.14 865.499C2267.83 864.074 2265.76 862.444 2263.94 860.608 2260.28 856.937 2257.57 852.789 2255.78 848.163 2253.99 843.537 2253.09 838.829 2253.09 834.039 2253.09 829.347 2253.87 824.731 2255.42 820.192 2256.97 815.652 2259.36 811.482 2262.6 807.679 2263.41 806.728 2264.28 805.826 2265.21 804.971ZM3115.4 802.664 3116.92 803.628C3118.15 804.534 3119.28 805.502 3120.3 806.531 3122.46 808.685 3124.3 811.151 3125.83 813.929 3127.37 816.707 3128.58 819.804 3129.47 823.219 3130.36 826.635 3130.8 830.208 3130.8 833.938 3130.8 842.326 3128.99 849.378 3125.38 855.095 3123.57 857.954 3121.55 860.431 3119.32 862.527L3116 865.235 3116.18 865.149C3121.58 861.91 3125.69 857.535 3128.49 852.023 3131.28 846.511 3132.68 840.547 3132.68 834.131 3132.68 828.401 3131.69 823.296 3129.7 818.816 3127.71 814.335 3125.37 810.71 3122.67 807.94 3120.98 806.236 3119.08 804.744 3116.94 803.465ZM1845.4 802.663 1846.92 803.628C1848.15 804.534 1849.28 805.502 1850.3 806.531 1852.46 808.685 1854.3 811.151 1855.83 813.929 1857.37 816.707 1858.58 819.804 1859.47 823.219 1860.36 826.635 1860.8 830.208 1860.8 833.938 1860.8 842.326 1858.99 849.378 1855.38 855.095 1853.57 857.954 1851.55 860.431 1849.32 862.527L1846 865.235 1846.18 865.149C1851.58 861.91 1855.69 857.535 1858.49 852.023 1861.28 846.511 1862.68 840.547 1862.68 834.131 1862.68 828.401 1861.69 823.296 1859.7 818.816 1857.71 814.335 1855.37 810.71 1852.67 807.94 1850.98 806.236 1849.08 804.744 1846.94 803.465ZM1731.24 800.404 1732.71 801.545C1734.93 803.5 1736.62 805.748 1737.78 808.287 1739.32 811.672 1740.1 815.011 1740.1 818.304 1740.1 821.094 1739.67 823.556 1738.81 825.69L1737.93 827.464 1738.16 827.211C1740.35 824.422 1741.44 821.084 1741.44 817.199 1741.44 814.148 1740.84 811.389 1739.65 808.921 1738.45 806.454 1736.83 804.388 1734.78 802.723 1733.75 801.89 1732.66 801.157 1731.51 800.522ZM3090.5 799.622C3086.63 799.622 3083.39 799.984 3080.76 800.707 3080.61 801.648 3080.44 803.333 3080.25 805.764 3080.06 808.195 3079.9 810.997 3079.76 814.172 3079.63 817.347 3079.56 819.861 3079.56 821.714L3079.56 852.461C3079.56 857.033 3079.78 861.401 3080.22 865.566 3081.98 866.388 3084.24 867.038 3087 867.517 3089.77 867.995 3092.55 868.234 3095.34 868.234 3099.15 868.234 3102.89 867.516 3106.58 866.08 3110.26 864.643 3113.59 862.517 3116.56 859.701 3119.53 856.884 3121.92 853.284 3123.73 848.9 3125.54 844.515 3126.44 839.49 3126.44 833.823 3126.44 827.879 3125.49 822.741 3123.59 818.41 3121.69 814.078 3119.07 810.533 3115.73 807.773 3112.39 805.013 3108.55 802.965 3104.19 801.628 3099.84 800.29 3095.27 799.622 3090.5 799.622ZM1820.5 799.622C1816.63 799.622 1813.39 799.984 1810.76 800.707 1810.61 801.648 1810.44 803.333 1810.25 805.764 1810.06 808.195 1809.9 810.997 1809.76 814.172 1809.63 817.347 1809.56 819.861 1809.56 821.714L1809.56 852.461C1809.56 857.033 1809.78 861.401 1810.22 865.566 1811.98 866.388 1814.24 867.038 1817 867.517 1819.77 867.995 1822.55 868.234 1825.34 868.234 1829.15 868.234 1832.89 867.516 1836.58 866.08 1840.26 864.643 1843.59 862.517 1846.56 859.701 1849.53 856.884 1851.92 853.284 1853.73 848.9 1855.54 844.515 1856.44 839.49 1856.44 833.823 1856.44 827.879 1855.49 822.741 1853.59 818.41 1851.69 814.078 1849.07 810.533 1845.73 807.773 1842.39 805.013 1838.55 802.965 1834.19 801.628 1829.84 800.29 1825.27 799.622 1820.5 799.622ZM1718.38 799.447C1716.48 799.447 1715.21 799.522 1714.59 799.672 1714.34 801.28 1714.09 803.908 1713.84 807.558 1713.58 811.208 1713.46 814.352 1713.46 816.989L1713.46 825.615C1713.46 828.756 1713.53 831.289 1713.69 833.213 1714.39 833.322 1716.03 833.376 1718.59 833.376 1722.91 833.376 1726.35 832.657 1728.92 831.219 1731.49 829.78 1733.32 827.912 1734.41 825.613 1735.5 823.315 1736.05 820.773 1736.05 817.989 1736.05 815.261 1735.51 812.729 1734.42 810.394 1733.34 808.058 1731.95 806.093 1730.25 804.497 1728.55 802.901 1726.64 801.66 1724.52 800.775 1722.4 799.89 1720.35 799.447 1718.38 799.447ZM3205.9 798.947C3200.68 798.947 3195.85 800.314 3191.41 803.048 3186.97 805.783 3183.44 809.754 3180.8 814.961 3178.16 820.168 3176.84 826.344 3176.84 833.487 3176.84 841.19 3178.28 847.67 3181.16 852.928 3184.03 858.186 3187.7 862.07 3192.16 864.579 3196.62 867.087 3201.24 868.342 3206.01 868.342 3209.91 868.342 3213.6 867.601 3217.07 866.12 3220.53 864.639 3223.64 862.466 3226.38 859.601 3229.13 856.737 3231.28 853.193 3232.84 848.968 3234.39 844.744 3235.17 840.04 3235.17 834.856 3235.17 827.704 3234.35 822.015 3232.72 817.791 3231.08 813.567 3228.68 809.872 3225.52 806.706 3222.86 804.047 3219.82 802.089 3216.41 800.832 3213 799.575 3209.49 798.947 3205.9 798.947ZM2775.9 798.947C2770.68 798.947 2765.85 800.314 2761.41 803.048 2756.97 805.783 2753.44 809.754 2750.8 814.961 2748.16 820.168 2746.84 826.344 2746.84 833.487 2746.84 841.19 2748.28 847.67 2751.16 852.928 2754.03 858.186 2757.7 862.07 2762.16 864.579 2766.62 867.087 2771.24 868.342 2776.01 868.342 2779.91 868.342 2783.6 867.601 2787.07 866.12 2790.53 864.639 2793.64 862.466 2796.38 859.601 2799.13 856.737 2801.28 853.193 2802.84 848.968 2804.39 844.744 2805.17 840.04 2805.17 834.856 2805.17 827.704 2804.35 822.015 2802.72 817.791 2801.08 813.567 2798.68 809.872 2795.52 806.706 2792.86 804.047 2789.82 802.089 2786.41 800.832 2783 799.575 2779.49 798.947 2775.9 798.947ZM2495.9 798.947C2490.68 798.947 2485.85 800.314 2481.41 803.048 2476.97 805.783 2473.44 809.754 2470.8 814.961 2468.16 820.168 2466.84 826.344 2466.84 833.487 2466.84 841.19 2468.28 847.67 2471.16 852.928 2474.03 858.186 2477.7 862.07 2482.16 864.579 2486.62 867.087 2491.24 868.342 2496.01 868.342 2499.91 868.342 2503.6 867.601 2507.06 866.12 2510.53 864.639 2513.64 862.466 2516.38 859.601 2519.13 856.737 2521.28 853.193 2522.84 848.968 2524.39 844.744 2525.17 840.04 2525.17 834.856 2525.17 827.704 2524.35 822.015 2522.72 817.791 2521.08 813.567 2518.68 809.872 2515.52 806.706 2512.86 804.047 2509.82 802.089 2506.41 800.832 2503 799.575 2499.49 798.947 2495.9 798.947ZM2666.25 798.571 2612.76 869.183 2615.29 869.183 2668.67 798.571ZM1704.33 798.5 1704.33 869.308 1705.88 869.308 1705.88 798.5ZM3070.54 798.464 3070.54 869.308 3071.99 869.308 3071.99 798.464ZM2853.84 798.464 2853.84 869.416 2855.29 869.416 2855.29 798.464ZM2353.91 798.464 2353.91 869.308 2355.36 869.308 2355.36 798.464ZM2030.91 798.464 2030.91 869.308 2032.36 869.308 2032.36 798.464ZM1957.73 798.464 1957.73 869.288 1959.18 869.288 1959.18 798.464ZM1800.54 798.464 1800.54 869.308 1801.99 869.308 1801.99 798.464ZM1650.65 798.464 1650.65 869.308 1652.1 869.308 1652.1 798.464ZM1513.51 798.464 1532.22 863 1532.88 861.172 1515 798.464ZM1242.65 798.464 1242.65 869.308 1244.1 869.308 1244.1 798.464ZM886.648 798.464 886.648 869.308 888.098 869.308 888.098 798.464ZM810.735 798.464 810.735 869.288 812.185 869.288 812.185 798.464ZM674.512 798.464 693.224 863 693.88 861.172 676 798.464ZM2414.87 798.359 2414.87 869.308 2416.32 869.308 2416.32 798.359ZM2091.87 798.359 2091.87 869.308 2093.32 869.308 2093.32 798.359ZM2947.32 798.356 2947.32 869.308 2948.66 869.308 2948.66 798.356ZM1129.77 798.356 1191.17 866.945 1191.17 863.491 1132.55 798.356ZM939.648 798.356 939.648 869.288 941.098 869.288 941.098 798.356ZM1293.45 798.195 1352.53 869.308 1355.21 869.308 1296.22 798.195ZM3278.09 797.658C3277.38 797.741 3276.72 798.227 3276.12 799.117 3275.51 800.007 3275.32 801.543 3275.54 803.724L3278.09 826.546ZM2702.99 797.014C2701.38 797.231 2700.57 798.49 2700.57 800.788 2700.57 801.763 2700.87 802.575 2701.48 803.225 2702.09 803.875 2702.59 804.251 2702.99 804.353ZM3052.38 794.274 3096.77 794.274C3104.99 794.274 3112.01 795.474 3117.83 797.873 3123.65 800.273 3128.25 803.405 3131.63 807.271 3135.01 811.137 3137.43 815.356 3138.9 819.928 3140.37 824.499 3141.1 829.1 3141.1 833.728 3141.1 839.39 3140.15 844.67 3138.26 849.567 3136.36 854.464 3133.63 858.71 3130.08 862.304 3126.52 865.898 3122.33 868.662 3117.51 870.596 3112.68 872.531 3107.39 873.498 3101.61 873.498L3052.07 873.498 3052.07 870.958 3065.03 869.109C3065.52 866.665 3065.94 862.01 3066.29 855.142 3066.64 848.274 3066.81 842.89 3066.81 838.991L3066.81 825.194C3066.81 815.067 3066.38 806.257 3065.53 798.762L3052.38 796.768ZM2835.68 794.274 2894.1 794.274 2895.25 813.104 2892.55 813.104 2888.75 799.812C2885.37 799.629 2882.38 799.538 2879.79 799.538 2873.27 799.538 2868.03 799.982 2864.08 800.872 2863.85 802.833 2863.62 805.863 2863.38 809.962 2863.14 814.06 2863.02 817.309 2863.02 819.707 2863.02 822.325 2863.14 825.585 2863.37 829.487 2865.92 829.788 2869.37 829.938 2873.74 829.938 2878.32 829.938 2881.85 829.781 2884.32 829.465L2886.92 820.301 2889.55 820.301 2889.55 844.991 2886.91 844.991 2884.31 835.33C2882.78 835.167 2881.11 835.052 2879.3 834.983 2877.49 834.914 2875.6 834.88 2873.63 834.88 2871.77 834.88 2868.32 835.035 2863.27 835.346 2863.1 838.202 2863.02 841.642 2863.02 845.665 2863.02 848.56 2863.16 852.588 2863.43 857.748 2863.7 862.907 2864.01 866.702 2864.36 869.13L2877.66 870.965 2877.66 873.498 2835.68 873.498 2835.68 870.959 2848.49 869.125C2848.94 865.932 2849.33 861.237 2849.64 855.041 2849.96 848.845 2850.11 843.64 2850.11 839.425L2850.11 824.788C2850.11 822.996 2850.05 820.328 2849.93 816.783 2849.81 813.238 2849.65 809.795 2849.46 806.454 2849.27 803.114 2849.02 800.557 2848.72 798.784L2835.68 796.766ZM2337.91 794.274 2378.42 794.274 2378.42 796.773 2364.28 798.673C2364 800.062 2363.73 803.127 2363.47 807.869 2363.22 812.61 2363.09 816.772 2363.09 820.354 2363.09 823.51 2363.18 826.852 2363.35 830.381 2367.79 831.232 2375.12 831.657 2385.35 831.657 2390.63 831.657 2395.42 831.556 2399.71 831.353 2404.01 831.151 2407.73 830.809 2410.89 830.327 2411.13 827.486 2411.25 823.723 2411.25 819.038 2411.25 816.273 2411.17 813.495 2411.01 810.703 2410.86 807.911 2410.69 805.67 2410.52 803.98 2410.35 802.289 2410.13 800.486 2409.88 798.571L2395.81 796.789 2395.81 794.274 2436.27 794.274 2436.27 796.749 2425.34 798.549C2424.89 800.635 2424.53 804.67 2424.28 810.654 2424.02 816.637 2423.89 822.643 2423.89 828.673L2423.89 846.315C2423.89 856.863 2424.38 864.47 2425.34 869.138L2436.37 870.989 2436.37 873.498 2395.81 873.498 2395.81 870.952 2409.64 869.115C2410.54 863.651 2411.07 857.411 2411.25 850.393 2411.32 848.586 2411.32 846.396 2411.25 843.823 2411.18 841.249 2411.06 838.859 2410.9 836.652L2363.23 836.652C2363.14 838.392 2363.09 842.158 2363.09 847.952 2363.09 851.482 2363.2 855.391 2363.42 859.68 2363.64 863.968 2363.97 867.112 2364.42 869.114L2378.42 870.959 2378.42 873.498 2337.8 873.498 2337.8 870.981 2348.57 869.14C2348.74 868.166 2348.96 865.893 2349.24 862.32 2349.52 858.747 2349.74 854.696 2349.92 850.168 2350.09 845.639 2350.18 841.845 2350.18 838.784L2350.18 819.351C2350.18 818.822 2350.13 817.001 2350.02 813.886 2349.92 810.772 2349.73 807.665 2349.47 804.566 2349.21 801.467 2348.99 799.463 2348.81 798.554L2337.91 796.76ZM2014.91 794.274 2055.42 794.274 2055.42 796.773 2041.28 798.673C2041 800.062 2040.73 803.127 2040.47 807.869 2040.22 812.61 2040.09 816.772 2040.09 820.354 2040.09 823.51 2040.18 826.852 2040.35 830.381 2044.79 831.232 2052.12 831.657 2062.35 831.657 2067.64 831.657 2072.42 831.556 2076.71 831.353 2081.01 831.151 2084.73 830.809 2087.89 830.327 2088.13 827.486 2088.25 823.723 2088.25 819.038 2088.25 816.273 2088.17 813.495 2088.01 810.703 2087.86 807.911 2087.69 805.67 2087.52 803.98 2087.35 802.289 2087.13 800.486 2086.88 798.571L2072.81 796.789 2072.81 794.274 2113.27 794.274 2113.27 796.749 2102.34 798.549C2101.89 800.635 2101.53 804.67 2101.28 810.654 2101.02 816.637 2100.89 822.643 2100.89 828.673L2100.89 846.315C2100.89 856.863 2101.38 864.47 2102.34 869.138L2113.37 870.989 2113.37 873.498 2072.81 873.498 2072.81 870.952 2086.64 869.115C2087.54 863.651 2088.07 857.411 2088.25 850.393 2088.32 848.586 2088.32 846.396 2088.25 843.823 2088.18 841.249 2088.06 838.859 2087.9 836.652L2040.23 836.652C2040.14 838.392 2040.09 842.158 2040.09 847.952 2040.09 851.482 2040.2 855.391 2040.42 859.68 2040.64 863.968 2040.97 867.112 2041.42 869.114L2055.42 870.959 2055.42 873.498 2014.8 873.498 2014.8 870.981 2025.57 869.14C2025.74 868.166 2025.96 865.893 2026.24 862.32 2026.52 858.747 2026.74 854.696 2026.92 850.168 2027.09 845.639 2027.18 841.845 2027.18 838.784L2027.18 819.351C2027.18 818.822 2027.13 817.001 2027.02 813.886 2026.92 810.772 2026.73 807.665 2026.47 804.566 2026.21 801.467 2025.99 799.463 2025.81 798.554L2014.91 796.76ZM1939.52 794.274 1997.73 794.274 1999.15 812.805 1996.36 812.805 1992.55 799.856C1990.07 799.68 1986.99 799.592 1983.32 799.592 1976.66 799.592 1971.54 800.001 1967.96 800.82 1967.34 805.917 1967.02 812.119 1967.02 819.426 1967.02 824.042 1967.13 827.413 1967.34 829.536 1972.05 829.804 1975.23 829.938 1976.9 829.938 1980.89 829.938 1984.7 829.742 1988.32 829.35L1990.71 820.301 1993.56 820.301 1993.56 844.885 1990.7 844.885 1988.21 835.324C1985.64 835.028 1982.55 834.88 1978.95 834.88 1974.4 834.88 1970.53 835.057 1967.33 835.413 1966.94 838.892 1966.83 842.534 1967 846.339 1967.07 851.308 1967.16 855.406 1967.26 858.631 1967.37 861.857 1967.54 864.426 1967.76 866.337 1971.46 867.458 1976.74 868.019 1983.59 868.019 1987.6 868.019 1990.7 867.893 1992.89 867.64L1997.13 854.852 1999.78 854.852 1998.53 873.498 1939.68 873.498 1939.68 870.962 1952.43 869.097C1952.61 868.193 1952.81 866.274 1953.04 863.339 1953.26 860.404 1953.46 857.104 1953.64 853.438 1953.81 849.772 1953.94 846.714 1954.01 844.264 1954.08 841.815 1954.11 839.67 1954.11 837.83L1954.11 824.564C1954.11 822.913 1954.06 820.545 1953.95 817.46 1953.85 814.375 1953.69 811.18 1953.48 807.874 1953.27 804.569 1953.01 801.502 1952.68 798.675L1939.52 796.819ZM1782.38 794.274 1826.77 794.274C1834.99 794.274 1842.01 795.474 1847.83 797.873 1853.65 800.273 1858.25 803.405 1861.63 807.271 1865.01 811.137 1867.43 815.356 1868.9 819.928 1870.37 824.499 1871.1 829.1 1871.1 833.728 1871.1 839.39 1870.15 844.67 1868.26 849.567 1866.36 854.464 1863.63 858.71 1860.08 862.304 1856.52 865.898 1852.33 868.662 1847.51 870.596 1842.68 872.531 1837.39 873.498 1831.61 873.498L1782.07 873.498 1782.07 870.958 1795.03 869.109C1795.52 866.665 1795.94 862.01 1796.29 855.142 1796.64 848.274 1796.81 842.89 1796.81 838.991L1796.81 825.194C1796.81 815.067 1796.38 806.257 1795.53 798.762L1782.38 796.768ZM1686.69 794.274 1722.36 794.274C1729.15 794.274 1734.59 795.644 1738.69 798.384 1742.79 801.124 1745.63 804.252 1747.22 807.767 1748.8 811.283 1749.59 814.318 1749.59 816.873 1749.59 820.392 1748.79 823.54 1747.19 826.317 1745.58 829.093 1743.48 831.299 1740.9 832.934 1739.6 833.752 1738.37 834.394 1737.21 834.86L1735.89 835.302 1736.9 835.828C1737.83 836.451 1738.72 837.18 1739.55 838.015 1740.82 839.282 1742.27 841.076 1743.92 843.398 1745.56 845.721 1747.69 848.82 1750.29 852.698 1752.9 856.575 1754.96 859.557 1756.48 861.643 1757.99 863.73 1759.21 865.319 1760.15 866.411 1763.23 869.345 1766.43 870.812 1769.75 870.812L1769.75 873.498 1759.45 873.498C1754.02 873.498 1749.98 871.957 1747.32 868.875 1745.55 867.471 1744.04 865.906 1742.8 864.181 1741.55 862.456 1739.72 859.817 1737.29 856.263 1734.86 852.709 1732.74 849.672 1730.93 847.151 1729.13 844.629 1727.74 842.884 1726.77 841.916 1725.36 840.508 1724.1 839.574 1722.97 839.114 1721.85 838.654 1720.16 838.425 1717.91 838.425 1715.78 838.425 1714.4 838.488 1713.78 838.614 1713.63 839.899 1713.56 841.708 1713.56 844.041L1713.56 853.787C1713.56 857.897 1713.96 863.011 1714.76 869.129L1727.99 870.966 1727.99 873.498 1686.69 873.498 1686.69 870.963 1699.19 869.125C1699.64 866.071 1700.02 861.355 1700.34 854.978 1700.65 848.601 1700.81 843.954 1700.81 841.038L1700.81 824.781C1700.81 820.652 1700.67 815.918 1700.39 810.579 1700.11 805.24 1699.79 801.278 1699.44 798.694L1686.69 796.769ZM1632.38 794.274 1674.36 794.274 1674.36 796.768 1661.09 798.658C1660.76 801.564 1660.51 804.384 1660.33 807.12 1660.16 809.856 1660.01 813.083 1659.87 816.803 1659.74 820.523 1659.67 824.251 1659.67 827.988L1659.67 839.626C1659.67 842.107 1659.75 845.68 1659.9 850.344 1660.05 855.009 1660.26 858.999 1660.52 862.315 1660.77 865.63 1660.99 867.902 1661.17 869.128L1674.36 870.967 1674.36 873.498 1632.38 873.498 1632.38 870.965 1645.34 869.023C1645.87 865.137 1646.28 860.118 1646.58 853.965 1646.88 847.812 1647.02 841.786 1647.02 835.888L1647.02 827.04C1647.02 815.098 1646.53 805.64 1645.56 798.666L1632.38 796.776ZM1276.72 794.274 1323 794.274 1323 796.843 1306.2 798.502C1307.92 800.405 1309.62 802.549 1311.3 804.932 1312.98 807.315 1314.75 809.663 1316.59 811.974 1318.44 814.286 1320.55 816.818 1322.91 819.57 1325.27 822.323 1327.42 824.991 1329.36 827.575 1331.4 825.139 1334.25 821.836 1337.92 817.667 1341.6 813.497 1344.82 809.648 1347.59 806.12 1350.37 802.591 1352.48 800.052 1353.94 798.501L1337.86 796.846 1337.86 794.274 1375.31 794.274 1375.31 796.819 1362.33 798.531C1360.25 800.44 1357.83 802.93 1355.07 805.998 1352.3 809.067 1349.34 812.505 1346.18 816.312 1343.02 820.118 1340.28 823.523 1337.96 826.525 1335.64 829.527 1334.15 831.469 1333.48 832.353 1335.48 834.844 1338.14 838.178 1341.45 842.357 1344.76 846.535 1347.85 850.349 1350.74 853.796 1353.62 857.244 1356.26 860.289 1358.65 862.932 1361.04 865.576 1363.09 867.651 1364.78 869.157L1375.21 871.005 1375.21 873.498 1330.17 873.498 1330.17 870.945 1346.91 869.18C1344.11 865.233 1340.42 860.393 1335.84 854.66 1331.25 848.926 1326.96 843.711 1322.95 839.016 1319.97 842.43 1316.79 846.108 1313.4 850.048 1310.02 853.989 1306.92 857.777 1304.11 861.41 1301.3 865.044 1299.12 867.641 1297.56 869.202L1313.62 870.955 1313.62 873.498 1276.45 873.498 1276.45 870.978 1289.14 869.047C1293.94 864.352 1299.24 858.507 1305.05 851.515 1310.86 844.522 1315.49 838.74 1318.95 834.171 1315.64 830.013 1312.2 825.699 1308.64 821.228 1305.08 816.756 1301.48 812.386 1297.84 808.117 1294.19 803.849 1291.26 800.689 1289.05 798.64L1276.72 796.815ZM1224.38 794.274 1266.36 794.274 1266.36 796.768 1253.09 798.658C1252.76 801.564 1252.51 804.384 1252.33 807.12 1252.16 809.856 1252.01 813.083 1251.87 816.803 1251.74 820.523 1251.67 824.251 1251.67 827.988L1251.67 839.626C1251.67 842.107 1251.75 845.68 1251.9 850.344 1252.05 855.009 1252.26 858.999 1252.52 862.315 1252.77 865.63 1252.99 867.902 1253.17 869.128L1266.36 870.967 1266.36 873.498 1224.38 873.498 1224.38 870.965 1237.34 869.023C1237.87 865.137 1238.28 860.118 1238.58 853.965 1238.88 847.812 1239.02 841.786 1239.02 835.888L1239.02 827.04C1239.02 815.098 1238.53 805.64 1237.56 798.666L1224.38 796.776ZM1111.82 794.274 1140.02 794.274C1141.96 796.917 1144.35 799.938 1147.16 803.338 1149.98 806.737 1152.45 809.612 1154.56 811.963L1177.39 837.81C1181.23 842.166 1183.95 845.068 1185.53 846.516 1187.11 847.964 1188.78 849.957 1190.53 852.497 1190.61 850.716 1190.68 848.786 1190.75 846.707 1190.82 844.629 1190.86 842.667 1190.86 840.822L1190.86 818.064C1190.86 809.992 1190.49 803.549 1189.76 798.736L1176.84 796.768 1176.84 794.274 1210.4 794.274 1210.4 796.753 1197.48 798.827C1196.9 803.127 1196.6 809.099 1196.6 816.741L1196.6 875.539 1194.41 875.539C1188.79 868.422 1183.37 861.934 1178.16 856.075L1145.9 820.146C1141.17 815.114 1137.67 811.185 1135.39 808.362 1135.06 812.382 1134.89 816.482 1134.89 820.662L1134.89 853.994C1134.89 858.477 1135.21 863.485 1135.83 869.016L1149.33 870.981 1149.33 873.498 1115.14 873.498 1115.14 870.968 1128.22 869.106C1128.56 867.07 1128.82 863.744 1128.99 859.128 1129.16 854.512 1129.25 850.393 1129.25 846.77L1129.25 820.959C1129.25 817.937 1129.2 814.943 1129.1 811.977 1128.99 809.01 1128.81 806.194 1128.56 803.528L1122.13 798.791 1111.82 796.717ZM921.489 794.274 963.469 794.274 963.469 796.767 950.284 798.657C949.894 801.562 949.545 805.824 949.238 811.443 948.931 817.061 948.777 822.116 948.777 826.607L948.777 849.245C948.777 854.741 949.03 860.143 949.535 865.451 954.96 867.163 960.808 868.019 967.081 868.019 970.152 868.019 972.949 867.849 975.472 867.508 977.995 867.168 979.596 866.895 980.275 866.692L985.827 852.12 988.484 852.12 985.872 873.498 921.383 873.498 921.383 870.962 934.162 869.092C934.463 867.89 934.761 865.149 935.057 860.87 935.352 856.59 935.588 852.163 935.762 847.589 935.937 843.014 936.024 839.794 936.024 837.929L936.024 824.66C936.024 821.781 935.954 818.464 935.814 814.712 935.674 810.959 935.509 807.684 935.319 804.886 935.129 802.088 934.918 800.015 934.685 798.667L921.489 796.776ZM868.383 794.274 910.365 794.274 910.365 796.768 897.089 798.658C896.76 801.564 896.508 804.384 896.334 807.12 896.159 809.856 896.006 813.083 895.872 816.803 895.739 820.523 895.672 824.251 895.672 827.988L895.672 839.626C895.672 842.107 895.748 845.68 895.899 850.344 896.051 855.009 896.256 858.999 896.515 862.315 896.774 865.63 896.994 867.902 897.173 869.128L910.365 870.967 910.365 873.498 868.383 873.498 868.383 870.965 881.342 869.023C881.871 865.137 882.283 860.118 882.579 853.965 882.876 847.812 883.024 841.786 883.024 835.888L883.024 827.04C883.024 815.098 882.535 805.64 881.557 798.666L868.383 796.776ZM792.523 794.274 850.732 794.274 852.146 812.805 849.357 812.805 845.549 799.856C843.066 799.68 839.991 799.592 836.325 799.592 829.665 799.592 824.545 800.001 820.965 800.82 820.336 805.917 820.022 812.119 820.022 819.426 820.022 824.042 820.126 827.413 820.336 829.536 825.046 829.804 828.234 829.938 829.9 829.938 833.893 829.938 837.699 829.742 841.318 829.35L843.712 820.301 846.563 820.301 846.563 844.885 843.705 844.885 841.208 835.324C838.638 835.028 835.553 834.88 831.954 834.88 827.402 834.88 823.528 835.057 820.331 835.413 819.941 838.892 819.831 842.534 820.003 846.339 820.073 851.308 820.16 855.406 820.265 858.631 820.37 861.857 820.536 864.426 820.764 866.337 824.464 867.458 829.738 868.019 836.588 868.019 840.598 868.019 843.698 867.893 845.889 867.64L850.133 854.852 852.778 854.852 851.531 873.498 792.681 873.498 792.681 870.962 805.431 869.097C805.607 868.193 805.808 866.274 806.035 863.339 806.262 860.404 806.463 857.104 806.639 853.438 806.815 849.772 806.937 846.714 807.007 844.264 807.076 841.815 807.111 839.67 807.111 837.83L807.111 824.564C807.111 822.913 807.058 820.545 806.953 817.46 806.849 814.375 806.692 811.18 806.483 807.874 806.274 804.569 806.006 801.502 805.679 798.675L792.523 796.819ZM3279.38 793.469C3280.72 793.469 3281.97 793.782 3283.11 794.409 3284.25 795.035 3285.18 795.96 3285.89 797.183 3286.6 798.405 3286.96 799.824 3286.96 801.439 3286.96 801.978 3286.63 804.7 3285.98 809.605 3285.33 814.51 3284.51 820.8 3283.55 828.477 3282.58 836.154 3281.88 841.973 3281.46 845.935 3281.03 849.896 3280.82 853.426 3280.82 856.525L3277.57 856.525C3277.57 853.582 3277.24 849.217 3276.58 843.429 3275.92 837.642 3275.22 831.933 3274.49 826.302 3273.75 820.672 3273.04 815.277 3272.36 810.119 3271.68 804.961 3271.34 801.927 3271.34 801.018 3271.34 798.984 3272.04 797.217 3273.45 795.718 3274.86 794.218 3276.84 793.469 3279.38 793.469ZM1559.25 793.469 1561.82 793.469C1562.46 794.97 1563.42 797.376 1564.7 800.685 1565.98 803.995 1567.05 806.627 1567.9 808.583L1580.68 836.584C1582.74 841.334 1584.88 846.334 1587.1 851.584 1587.61 849.292 1589.06 844.237 1591.45 836.419L1597.47 815.138C1598.27 812.496 1598.98 809.593 1599.6 806.43 1600.22 803.267 1600.67 800.646 1600.95 798.567L1585.62 796.842 1585.62 794.274 1618.79 794.274 1618.79 796.752 1609.09 798.658C1608.12 800.923 1607.09 803.635 1605.99 806.792 1604.89 809.95 1603.82 813.377 1602.78 817.075L1593.4 849.447C1591.8 855.055 1590.39 860.109 1589.18 864.609 1587.96 869.109 1587.1 872.752 1586.57 875.539L1583.97 875.539C1583.42 873.94 1582.83 872.277 1582.18 870.548 1581.54 868.818 1581.02 867.435 1580.63 866.396 1580.23 865.358 1579.74 864.151 1579.16 862.775 1578.58 861.399 1577.92 859.947 1577.17 858.419L1562.45 825.527C1559.44 819.365 1557.79 815.661 1557.5 814.416 1557.46 815.176 1556.77 817.141 1555.42 820.309 1554.08 823.478 1553.29 825.423 1553.06 826.145L1540.69 856.669C1539.88 858.648 1539.04 860.656 1538.18 862.692 1537.32 864.729 1536.61 866.666 1536.06 868.505 1535.5 870.344 1534.74 872.689 1533.76 875.539L1531.19 875.539C1530.45 871.371 1528.8 864.639 1526.22 855.343L1516.27 820.338C1513.95 812.194 1511.46 804.969 1508.8 798.664L1499.33 796.76 1499.33 794.274 1539.93 794.274 1539.93 796.821 1524.9 798.77C1524.9 800.672 1525.32 803.942 1526.17 808.58 1527.01 813.218 1527.98 817.435 1529.07 821.231L1534.13 838.606C1535.25 842.582 1536.34 846.496 1537.39 850.349 1539.87 843.977 1542.06 838.413 1543.96 833.657L1553.03 811.115C1556.24 802.875 1558.31 796.993 1559.25 793.469ZM720.249 793.469 722.817 793.469C723.459 794.97 724.421 797.376 725.701 800.685 726.982 803.995 728.049 806.627 728.903 808.583L741.681 836.584C743.742 841.334 745.882 846.334 748.101 851.584 748.611 849.292 750.061 844.237 752.452 836.419L758.471 815.138C759.267 812.496 759.975 809.593 760.596 806.43 761.217 803.267 761.668 800.646 761.948 798.567L746.622 796.842 746.622 794.274 779.79 794.274 779.79 796.752 770.094 798.658C769.123 800.923 768.087 803.635 766.986 806.792 765.886 809.95 764.817 813.377 763.78 817.075L754.401 849.447C752.8 855.055 751.392 860.109 750.178 864.609 748.963 869.109 748.095 872.752 747.573 875.539L744.975 875.539C744.425 873.94 743.828 872.277 743.184 870.548 742.54 868.818 742.021 867.435 741.627 866.396 741.233 865.358 740.745 864.151 740.163 862.775 739.58 861.399 738.917 859.947 738.174 858.419L723.448 825.527C720.439 819.365 718.788 815.661 718.495 814.416 718.461 815.176 717.77 817.141 716.422 820.309 715.075 823.478 714.287 825.423 714.059 826.145L701.686 856.669C700.88 858.648 700.044 860.656 699.18 862.692 698.315 864.729 697.607 866.666 697.055 868.505 696.504 870.344 695.739 872.689 694.762 875.539L692.191 875.539C691.454 871.371 689.797 864.639 687.219 855.343L677.266 820.338C674.948 812.194 672.459 804.969 669.797 798.664L660.327 796.76 660.327 794.274 700.931 794.274 700.931 796.821 685.901 798.77C685.901 800.672 686.323 803.942 687.167 808.58 688.011 813.218 688.98 817.435 690.073 821.231L695.133 838.606C696.25 842.582 697.337 846.496 698.393 850.349 700.87 843.977 703.06 838.413 704.964 833.657L714.029 811.115C717.238 802.875 719.311 796.993 720.249 793.469ZM2613.85 793.379C2617.74 793.713 2620.08 793.914 2620.88 793.983 2622.69 794.177 2624.43 794.274 2626.11 794.274L2677.24 794.274 2677.24 797.86 2642.34 844.59C2640.54 847.247 2638.09 850.843 2634.99 855.378 2631.9 859.914 2629.52 863.432 2627.85 865.931 2629.02 866.187 2631.82 866.598 2636.23 867.167 2640.64 867.735 2644.23 868.019 2647 868.019L2654.53 868.019C2655.78 868.019 2658.01 867.882 2661.2 867.607 2664.4 867.333 2666.81 867.044 2668.43 866.741L2674.07 853.125 2676.72 853.125 2673.89 873.498 2608.71 873.498 2608.71 869.997 2644.41 821.773C2649.86 814.44 2654.51 807.747 2658.37 801.694 2657.58 801.51 2655.31 801.104 2651.59 800.478 2647.86 799.851 2644.21 799.538 2640.65 799.538L2632.49 799.538C2630.65 799.538 2628.06 799.695 2624.71 800.008 2621.37 800.322 2619.32 800.575 2618.56 800.768L2613.97 813.748 2611.35 813.748ZM2986.79 793.274 2988.1 812.487 2985.53 812.487 2981.59 799.947C2978.83 799.46 2975.78 799.217 2972.43 799.217 2969.54 799.217 2966.87 799.375 2964.42 799.689 2961.97 800.004 2959.62 800.454 2957.36 801.039 2957.12 803.846 2956.93 806.755 2956.79 809.765 2956.65 812.775 2956.55 815.454 2956.49 817.802 2956.43 820.15 2956.39 822.004 2956.39 823.364L2956.39 840.844C2956.39 845.621 2956.55 850.784 2956.85 856.333 2957.16 861.881 2957.51 866.114 2957.9 869.029L2971.03 870.973 2971.03 873.498 2929.05 873.498 2929.05 870.965 2941.96 869.023C2942.98 861.803 2943.48 852.727 2943.48 841.793L2943.48 822.732C2943.48 818.834 2943.4 814.995 2943.22 811.215 2943.05 807.435 2942.78 804.046 2942.41 801.049 2940.89 800.628 2938.79 800.253 2936.1 799.921 2933.41 799.59 2930.9 799.39 2928.57 799.323 2924.88 799.323 2921.41 799.599 2918.16 800.151L2914.33 812.802 2911.68 812.802 2912.9 793.379C2914.77 793.467 2916.67 793.639 2918.61 793.893 2920.54 794.147 2922.15 794.274 2923.44 794.274L2969.17 794.274C2972.05 794.274 2974.59 794.199 2976.78 794.05 2978.97 793.9 2982.31 793.641 2986.79 793.274ZM2288.2 793.254C2289.46 793.254 2290.34 793.266 2290.85 793.289 2291.36 793.312 2292.27 793.352 2293.6 793.406 2294.93 793.461 2296.26 793.525 2297.6 793.597 2302.14 793.905 2305.73 794.059 2308.37 794.059 2313.98 794.059 2318 793.898 2320.45 793.576L2321.14 813.383 2318.57 813.383 2314.99 801.477C2314.4 801.338 2312.75 801.037 2310.05 800.575 2307.35 800.113 2304.75 799.744 2302.25 799.468 2299.75 799.193 2297.15 799.055 2294.47 799.055 2287.44 799.055 2281.45 800.45 2276.5 803.241 2271.54 806.032 2267.81 810.001 2265.3 815.147 2262.78 820.294 2261.53 826.248 2261.53 833.01 2261.53 838.257 2262.43 843.07 2264.23 847.446 2266.04 851.823 2268.56 855.55 2271.79 858.628 2275.02 861.705 2278.69 864.039 2282.8 865.631 2286.92 867.223 2291.28 868.019 2295.89 868.019 2300.47 868.019 2304.74 867.251 2308.69 865.715 2312.63 864.179 2316.32 861.242 2319.75 856.905L2321.83 857.62 2313.56 873.713C2309.69 873.426 2307.03 873.283 2305.58 873.283 2303.78 873.283 2301.3 873.426 2298.14 873.713 2294.98 873.999 2292.5 874.142 2290.68 874.142 2283.43 874.142 2277.01 873.018 2271.41 870.769 2265.82 868.52 2261.21 865.477 2257.57 861.64 2253.94 857.803 2251.23 853.561 2249.46 848.913 2247.7 844.264 2246.81 839.553 2246.81 834.778 2246.81 828.698 2247.84 823.094 2249.91 817.967 2251.97 812.84 2254.9 808.422 2258.7 804.714 2262.49 801.005 2266.92 798.168 2271.97 796.202 2277.01 794.237 2282.43 793.254 2288.2 793.254ZM2204.87 793.254C2207.09 793.254 2209.48 793.37 2212.04 793.603 2214.61 793.836 2216.52 793.952 2217.79 793.952 2218.35 793.928 2218.98 793.907 2219.69 793.89 2220.39 793.873 2220.93 793.842 2221.31 793.796 2221.68 793.75 2222.59 793.677 2224.04 793.576L2224.39 813.718 2221.76 813.718 2218.38 801.276C2213.94 799.33 2209.99 798.356 2206.54 798.356 2203.69 798.356 2201.16 798.886 2198.93 799.945 2196.69 801.003 2194.97 802.439 2193.75 804.252 2192.53 806.065 2191.92 808.113 2191.92 810.395 2191.92 812.758 2192.75 814.946 2194.42 816.959 2196.09 818.972 2198.54 821.076 2201.77 823.27 2205 825.464 2208.33 827.661 2211.78 829.859 2215.22 832.058 2218.02 834.236 2220.18 836.394 2224.57 840.796 2226.76 845.876 2226.76 851.632 2226.76 854.878 2225.92 858.225 2224.23 861.674 2222.54 865.122 2219.69 868.044 2215.68 870.441 2211.66 872.837 2206.52 874.035 2200.24 874.035 2198.03 874.035 2195.39 873.91 2192.31 873.659 2189.24 873.408 2187.02 873.283 2185.65 873.283 2185.05 873.283 2184.57 873.301 2184.2 873.337 2183.82 873.373 2183.25 873.426 2182.48 873.498 2181.7 873.57 2180.87 873.605 2179.99 873.605L2179.1 852.927 2181.75 852.927 2185.85 866.196C2187.48 866.94 2189.6 867.584 2192.2 868.128 2194.8 868.672 2197.34 868.922 2199.82 868.879 2201.71 868.879 2203.68 868.449 2205.75 867.588 2207.82 866.728 2209.49 865.653 2210.76 864.364 2212.04 863.075 2213.02 861.599 2213.71 859.935 2214.4 858.272 2214.75 856.679 2214.75 855.155 2214.75 851.978 2213.64 849.266 2211.43 847.018 2209.21 844.77 2205.33 841.78 2199.79 838.048 2194.24 834.315 2190.37 831.283 2188.18 828.949 2185.61 826.435 2183.77 824.002 2182.66 821.652 2181.55 819.301 2180.99 816.671 2180.99 813.761 2180.99 810.548 2181.86 807.37 2183.6 804.228 2185.34 801.086 2188.01 798.472 2191.63 796.385 2195.25 794.297 2199.67 793.254 2204.87 793.254ZM1425.5 793.166 1427.15 794.952C1425.9 796.225 1424.92 797.617 1424.22 799.127 1423.53 800.637 1423.11 801.669 1422.96 802.224 1424.65 802.224 1426.18 803.005 1427.56 804.568 1428.93 806.131 1429.62 807.83 1429.62 809.665 1429.62 811.816 1428.88 813.629 1427.4 815.104 1425.93 816.579 1424.06 817.316 1421.8 817.316 1419.87 817.316 1418.16 816.537 1416.68 814.98 1415.21 813.422 1414.47 811.299 1414.47 808.61 1414.47 802.375 1418.15 797.227 1425.5 793.166ZM1405.94 793.166 1407.49 794.942C1406.26 796.25 1405.28 797.674 1404.54 799.214 1403.79 800.754 1403.38 801.792 1403.3 802.328 1404.91 802.328 1406.4 803.104 1407.78 804.655 1409.16 806.206 1409.85 807.911 1409.85 809.77 1409.85 811.916 1409.11 813.71 1407.62 815.152 1406.14 816.595 1404.31 817.316 1402.15 817.316 1400.17 817.316 1398.46 816.546 1397 815.006 1395.54 813.466 1394.81 811.334 1394.81 808.61 1394.81 805.274 1395.82 802.305 1397.82 799.702 1399.83 797.1 1402.54 794.921 1405.94 793.166ZM3205.59 793.146C3213.22 793.146 3219.85 794.427 3225.48 796.989 3231.1 799.551 3235.72 802.911 3239.31 807.068 3242.91 811.226 3245.54 815.637 3247.22 820.301 3248.89 824.966 3249.73 829.44 3249.73 833.722 3249.73 838.62 3248.78 843.432 3246.89 848.159 3244.99 852.885 3242.2 857.209 3238.49 861.128 3234.79 865.048 3230.21 868.179 3224.76 870.522 3219.3 872.864 3213.22 874.035 3206.53 874.035 3196.87 874.035 3188.68 871.938 3181.95 867.745 3175.22 863.552 3170.25 858.354 3167.05 852.151 3163.84 845.948 3162.23 839.875 3162.23 833.933 3162.23 828.681 3163.25 823.607 3165.28 818.711 3167.32 813.815 3170.27 809.429 3174.15 805.552 3178.02 801.675 3182.66 798.638 3188.06 796.442 3193.46 794.245 3199.3 793.146 3205.59 793.146ZM2775.59 793.146C2783.22 793.146 2789.85 794.427 2795.48 796.989 2801.1 799.551 2805.72 802.911 2809.31 807.068 2812.91 811.226 2815.54 815.637 2817.22 820.301 2818.89 824.966 2819.73 829.44 2819.73 833.722 2819.73 838.62 2818.78 843.432 2816.89 848.159 2814.99 852.885 2812.2 857.209 2808.49 861.128 2804.79 865.048 2800.21 868.179 2794.76 870.522 2789.3 872.864 2783.22 874.035 2776.53 874.035 2766.87 874.035 2758.68 871.938 2751.95 867.745 2745.22 863.552 2740.25 858.354 2737.05 852.151 2733.84 845.948 2732.23 839.875 2732.23 833.933 2732.23 828.681 2733.25 823.607 2735.28 818.711 2737.32 813.815 2740.27 809.429 2744.15 805.552 2748.02 801.675 2752.66 798.638 2758.06 796.442 2763.46 794.245 2769.3 793.146 2775.59 793.146ZM2704.06 793.146C2706.68 793.146 2708.58 794.075 2709.76 795.932 2710.94 797.789 2711.53 799.71 2711.53 801.694 2711.53 805.506 2710.39 808.707 2708.1 811.297 2705.82 813.887 2703.18 815.851 2700.17 817.19L2698.79 815.612C2701.3 812.678 2702.7 810.177 2702.99 808.111 2701.46 808.084 2700.02 807.342 2698.67 805.885 2697.32 804.427 2696.65 802.732 2696.65 800.797 2696.65 798.705 2697.32 796.907 2698.65 795.403 2699.98 793.898 2701.79 793.146 2704.06 793.146ZM2495.59 793.146C2503.22 793.146 2509.85 794.427 2515.48 796.989 2521.1 799.551 2525.72 802.911 2529.31 807.068 2532.91 811.226 2535.54 815.637 2537.22 820.301 2538.89 824.966 2539.73 829.44 2539.73 833.722 2539.73 838.62 2538.78 843.432 2536.89 848.159 2534.99 852.885 2532.2 857.209 2528.49 861.128 2524.79 865.048 2520.21 868.179 2514.76 870.522 2509.3 872.864 2503.22 874.035 2496.53 874.035 2486.87 874.035 2478.68 871.938 2471.95 867.745 2465.22 863.552 2460.25 858.354 2457.05 852.151 2453.84 845.948 2452.23 839.875 2452.23 833.933 2452.23 828.681 2453.25 823.607 2455.28 818.711 2457.32 813.815 2460.27 809.429 2464.15 805.552 2468.02 801.675 2472.66 798.638 2478.06 796.442 2483.46 794.245 2489.3 793.146 2495.59 793.146Z"
       stroke="#ED7D31"
       stroke-width="3"
       stroke-linejoin="round"
       stroke-miterlimit="10"
       fill="url(#fill9)"
       fill-rule="evenodd"
       id="path451" /><g
       clip-path="url(#clip10)"
       filter="url(#fx2)"
       transform="translate(3359 827)"
       id="g459" /><path
       d="M3411.16 827.882 3407.63 837.458 3368.59 837.458C3366.28 837.458 3363.48 838.072 3360.19 839.301L3363.82 829.831 3401.82 829.831C3405.28 829.831 3408.39 829.181 3411.16 827.882Z"
       stroke="#ED7D31"
       stroke-width="3"
       stroke-linejoin="round"
       stroke-miterlimit="10"
       fill="url(#fill12)"
       fill-rule="evenodd"
       id="path461" /></g></svg>
